<svg width="135" height="40" viewBox="0 0 135 40" fill="none" xmlns="http://www.w3.org/2000/svg">
<mask id="mask0_402_115" style="mask-type:alpha" maskUnits="userSpaceOnUse" x="0" y="0" width="135" height="40">
<rect width="135" height="40" fill="#D9D9D9"/>
</mask>
<g mask="url(#mask0_402_115)">
<g clip-path="url(#clip0_402_115)">
<path d="M11.2514 4.48086C11.4357 4.37948 11.6087 4.28298 11.7841 4.19096C12.4416 3.84592 13.1175 3.54121 13.8131 3.28177C14.2743 3.10972 14.741 2.95214 15.2165 2.82296C15.5113 2.74286 15.8065 2.66297 16.1043 2.59538C16.413 2.52533 16.7244 2.46626 17.0359 2.40986C17.2917 2.36357 17.5494 2.3279 17.8063 2.28824C17.8787 2.27706 17.9513 2.26532 18.0243 2.25919C18.272 2.23838 18.5207 2.22684 18.7675 2.19831C18.9412 2.17824 19.1177 2.19331 19.2894 2.15052C19.3269 2.14116 19.3684 2.14686 19.4081 2.14684C19.8503 2.14667 20.2926 2.14394 20.7348 2.14822C20.8924 2.14975 21.0499 2.16741 21.2072 2.17958C21.331 2.18915 21.4546 2.20139 21.5783 2.21278C21.8144 2.23454 22.0514 2.24929 22.2863 2.28025C22.5945 2.32086 22.9022 2.36739 23.2078 2.42398C23.6192 2.50018 24.0294 2.58363 24.4348 2.6883C25.0101 2.83687 25.5794 3.00595 26.1364 3.21343C26.4809 3.34177 26.8268 3.4685 27.163 3.61659C27.6394 3.82644 28.1115 4.04709 28.5646 4.30549C28.8397 4.46242 29.1184 4.61352 29.389 4.77786C29.6647 4.94531 29.9353 5.1217 30.2032 5.30151C30.5887 5.56021 30.9585 5.8406 31.3186 6.13337C31.639 6.39382 31.9564 6.65788 32.2517 6.94735C32.462 7.15343 32.6789 7.35277 32.886 7.56193C33.2564 7.93596 33.6046 8.33033 33.9366 8.73872C34.3545 9.25296 34.7483 9.78547 35.1043 10.3445C35.3171 10.6786 35.528 11.0151 35.7172 11.3627C36.1804 12.2138 36.5916 13.0897 36.9166 14.004C37.1062 14.5373 37.2736 15.0775 37.4147 15.6257C37.5133 16.009 37.5989 16.3955 37.6671 16.7854C37.7244 17.1137 37.7782 17.4429 37.8242 17.7731C37.8578 18.0133 37.8726 18.2561 37.9023 18.497C37.9273 18.6995 37.9233 18.9036 37.9431 19.1057C37.9961 19.6487 37.9574 20.1924 37.9668 20.7356C37.9693 20.8817 37.9491 21.0283 37.9372 21.1746C37.9128 21.4729 37.8926 21.7716 37.8601 22.069C37.832 22.3273 37.7953 22.585 37.7516 22.8411C37.6906 23.1977 37.6227 23.5532 37.5516 23.9079C37.5139 24.096 37.4674 24.2826 37.4173 24.4678C37.3465 24.73 37.2739 24.9919 37.1931 25.2511C36.979 25.9372 36.735 26.612 36.4406 27.2688C36.269 27.6515 36.0828 28.0265 35.892 28.3994C35.6909 28.7926 35.4671 29.1731 35.2321 29.5471C34.8734 30.1179 34.4844 30.6673 34.0637 31.1939C33.7777 31.5518 33.4855 31.9046 33.1653 32.2331C32.924 32.4805 32.6886 32.7339 32.4405 32.9743C32.0992 33.3049 31.74 33.6163 31.3722 33.9176C31.0394 34.1903 30.6958 34.449 30.3434 34.6954C30.0744 34.8835 29.798 35.0613 29.5203 35.2364C29.2907 35.3812 29.0574 35.5208 28.8204 35.6528C28.5633 35.7961 28.3014 35.9311 28.0389 36.0643C27.4222 36.377 26.7881 36.6502 26.1359 36.88C25.7037 37.0322 25.2695 37.1778 24.8265 37.2977C24.4497 37.3997 24.0721 37.4964 23.6894 37.5731C23.3069 37.6497 22.9233 37.719 22.5369 37.7745C22.229 37.8188 21.9202 37.8479 21.6107 37.8752C21.1823 37.9129 20.7543 37.9496 20.3235 37.9417C20.0911 37.9375 19.8586 37.9387 19.6261 37.9416C19.3766 37.9447 19.1286 37.9259 18.8806 37.9018C18.7007 37.8843 18.5205 37.869 18.3401 37.8587C18.035 37.8414 17.7331 37.7965 17.4317 37.7506C16.9846 37.6826 16.5404 37.5972 16.0994 37.4959C15.6086 37.3831 15.1231 37.2513 14.6432 37.0974C14.2388 36.9677 13.8381 36.8278 13.4451 36.6678C13.1046 36.5291 12.7668 36.3822 12.4345 36.2248C12.0919 36.0624 11.7532 35.8905 11.4206 35.7086C11.1278 35.5485 10.8434 35.3724 10.5594 35.1969C10.1401 34.9379 9.73384 34.6592 9.34082 34.3618C8.98909 34.0957 8.64663 33.8182 8.31298 33.5292C7.89717 33.169 7.50285 32.7868 7.12154 32.3912C6.79566 32.0532 6.48888 31.6977 6.19197 31.3337C5.90587 30.9829 5.63302 30.6222 5.37599 30.2499C5.05422 29.7838 4.75086 29.306 4.47517 28.8107C4.26312 28.4298 4.06223 28.0432 3.87687 27.6489C3.57813 27.0134 3.31535 26.3635 3.09385 25.6964C2.95287 25.2718 2.83039 24.8424 2.71562 24.4105C2.61983 24.0501 2.54401 23.6848 2.47884 23.3176C2.42453 23.0116 2.37031 22.7053 2.3269 22.3976C2.29144 22.1462 2.26873 21.8929 2.24644 21.6399C2.22761 21.426 2.22398 21.2107 2.20227 20.9972C2.14535 20.4375 2.18782 19.8766 2.17756 19.3164C2.17488 19.1703 2.19588 19.0237 2.20826 18.8775C2.23206 18.5961 2.25321 18.3145 2.2836 18.0338C2.30667 17.8208 2.33901 17.6086 2.37326 17.397C2.41657 17.1294 2.46263 16.8621 2.51346 16.5958C2.64618 15.9006 2.82765 15.2182 3.04712 14.5451C3.2209 14.0121 3.41639 13.4881 3.63758 12.9731C3.83206 12.5203 4.04735 12.0774 4.27741 11.6422C4.58184 11.0662 4.91805 10.5085 5.28757 9.97181C5.61814 9.4917 5.96475 9.02347 6.342 8.57818C6.54686 8.33637 6.75062 8.0941 6.97261 7.86754C7.19456 7.64101 7.40836 7.40624 7.63562 7.18526C7.85033 6.9765 8.07877 6.7819 8.29961 6.57937C8.55833 6.34209 8.83085 6.12135 9.111 5.91053C9.41385 5.68261 9.71895 5.45724 10.0302 5.24108C10.3743 5.00214 10.7292 4.77916 11.0944 4.57317C11.1437 4.54538 11.1922 4.51629 11.2514 4.48086ZM16.5314 31.4461C16.5375 31.4945 16.5152 31.5486 16.5697 31.6C16.6215 31.6 16.6832 31.6 16.745 31.6C17.7259 31.6 18.7068 31.6011 19.6876 31.5996C20.2034 31.5988 20.7192 31.6088 21.2347 31.5768C21.6814 31.549 22.1288 31.5316 22.5759 31.5106C23.0293 31.4893 23.4795 31.4384 23.9274 31.3667C24.658 31.2498 25.3663 31.0551 26.0428 30.7518C26.6901 30.4616 27.2769 30.0797 27.7834 29.5814C28.4006 28.9743 28.839 28.2539 29.1213 27.4368C29.3354 26.817 29.4474 26.1773 29.5028 25.5255C29.5666 24.7744 29.5246 24.0304 29.3595 23.2948C29.1395 22.3143 28.7075 21.4387 28.0498 20.6763C27.6958 20.266 27.2908 19.9133 26.8471 19.6039C26.7971 19.569 26.7486 19.5321 26.6926 19.4912C26.7255 19.4516 26.7489 19.4209 26.7749 19.3925C26.9661 19.1834 27.1649 18.9807 27.3481 18.7648C28.1326 17.8405 28.5938 16.7725 28.7406 15.5705C28.8132 14.9761 28.7914 14.3831 28.6853 13.7927C28.4701 12.595 27.9565 11.5447 27.1229 10.6579C26.3293 9.81356 25.3592 9.26469 24.2373 8.98184C23.7365 8.85559 23.2275 8.77445 22.715 8.71629C22.4391 8.68499 22.1624 8.66641 21.8839 8.66686C20.1829 8.66962 18.482 8.66824 16.781 8.66825C16.73 8.66825 16.6788 8.66609 16.628 8.66934C16.5964 8.67136 16.5653 8.68168 16.5317 8.68874C16.5317 9.117 16.5315 9.53623 16.5326 9.95545C16.5327 9.96999 16.5461 9.98449 16.557 10.0066C16.6238 10.0066 16.6914 10.0062 16.7589 10.0066C18.3802 10.0166 20.0016 9.98471 21.6228 10.03C22.1383 10.0444 22.6541 10.0498 23.1679 10.0986C23.6275 10.1422 24.0733 10.2481 24.503 10.416C25.465 10.7919 26.2229 11.4125 26.7462 12.3084C27.0263 12.7881 27.2036 13.3051 27.2992 13.8522C27.4104 14.4884 27.432 15.1245 27.3212 15.7628C27.1578 16.7042 26.7271 17.504 26.0444 18.1693C25.6474 18.5563 25.1931 18.8633 24.7007 19.1153C24.3627 19.2883 24.0243 19.4604 23.6865 19.6338C23.6479 19.6537 23.6123 19.6794 23.5578 19.7133C23.6268 19.7442 23.6763 19.7684 23.7272 19.7889C24.326 20.0312 24.9251 20.2726 25.5238 20.5147C26.562 20.9346 27.3044 21.6608 27.7633 22.6798C28.0247 23.2605 28.1605 23.8725 28.1987 24.5052C28.2368 25.1369 28.1822 25.7623 28.0266 26.3773C27.8724 26.9866 27.6355 27.5602 27.2788 28.0804C26.9932 28.4968 26.6429 28.8462 26.211 29.1129C25.1937 29.7411 24.0835 30.0849 22.8995 30.2084C22.4138 30.259 21.9261 30.2642 21.439 30.2677C20.3221 30.2757 19.2052 30.272 18.0882 30.2728C17.629 30.2731 17.1697 30.2724 16.7104 30.2734C16.6555 30.2735 16.5979 30.2611 16.5501 30.2871C16.5428 30.3047 16.535 30.3147 16.5349 30.3248C16.5333 30.6876 16.5324 31.0504 16.5314 31.4461ZM11.5093 22.3034C11.5092 23.3012 11.5107 24.299 11.5088 25.2968C11.5069 26.3625 11.502 27.4283 11.4975 28.4941C11.4972 28.5618 11.4933 28.6303 11.4831 28.6972C11.4377 28.9957 11.3172 29.261 11.1203 29.4903C10.9257 29.717 10.7799 29.9705 10.6946 30.2575C10.4948 30.9295 10.6949 31.5794 11.2291 31.9946C11.7818 32.4241 12.5684 32.463 13.1409 32.0845C13.696 31.7175 14.0624 30.9805 13.7916 30.188C13.6888 29.8869 13.5145 29.6326 13.2962 29.4042C13.0183 29.1132 12.8708 28.7659 12.8666 28.3616C12.8608 27.7948 12.8545 27.2279 12.8527 26.6611C12.8503 25.9184 12.8533 25.1757 12.8513 24.433C12.8507 24.2008 12.8394 23.9686 12.837 23.7364C12.8351 23.5497 12.8201 23.3627 12.8574 23.1769C12.8945 22.9918 12.9959 22.8665 13.1829 22.8278C13.2875 22.8061 13.396 22.7942 13.5027 22.794C14.0639 22.7933 14.6251 22.7999 15.1863 22.8001C17.1252 22.8011 19.0641 22.8009 21.0031 22.8C21.2703 22.7999 21.5354 22.8221 21.7983 22.867C21.9712 22.8965 22.1442 22.9297 22.308 22.9964C22.7077 23.1592 22.9488 23.4523 23.0215 23.8782C23.0534 24.0648 23.0384 24.252 22.9924 24.4351C22.8901 24.8424 22.6466 25.1286 22.254 25.285C22.057 25.3635 21.8517 25.4034 21.6411 25.4109C21.4145 25.4191 21.1877 25.4216 20.9611 25.4224C20.4622 25.424 19.9632 25.4225 19.4643 25.4231C19.2886 25.4233 19.1129 25.4285 18.9372 25.4271C18.5915 25.4242 18.2962 25.3011 18.0569 25.049C18.0139 25.0037 17.9718 24.9577 17.9282 24.9132C17.7416 24.7224 17.5202 24.5909 17.2608 24.5252C16.7758 24.4023 16.3287 24.498 15.9125 24.763C15.604 24.9594 15.3967 25.2347 15.2827 25.5815C15.2089 25.8058 15.1891 26.0362 15.2056 26.27C15.2304 26.6197 15.3451 26.9373 15.5833 27.1973C15.964 27.6127 16.4363 27.8268 17.0059 27.7942C17.2877 27.7781 17.5326 27.6687 17.7302 27.4626C17.7577 27.434 17.7836 27.4039 17.8106 27.3747C18.0564 27.1089 18.3546 26.9318 18.7097 26.8584C18.8423 26.831 18.978 26.8117 19.1132 26.8043C19.5658 26.7797 20.0188 26.7614 20.4717 26.742C20.9416 26.7219 21.4113 26.6989 21.8785 26.6408C22.1769 26.6037 22.4725 26.5526 22.7619 26.4703C23.4827 26.2654 23.9581 25.8022 24.1924 25.0937C24.3707 24.5544 24.3901 24.0032 24.2808 23.4484C24.2155 23.1167 24.085 22.8102 23.8814 22.5372C23.5936 22.1516 23.2107 21.8991 22.7619 21.7417C22.3028 21.5806 21.8252 21.5193 21.3421 21.5057C20.8097 21.4907 20.2768 21.4871 19.7441 21.4836C19.2112 21.4801 18.6783 21.4828 18.1453 21.4828C18.0716 21.4829 17.9979 21.4819 17.9242 21.4834C17.4996 21.492 17.0751 21.508 16.6505 21.5089C15.2048 21.5122 13.7591 21.5094 12.3134 21.5113C12.1664 21.5115 12.0185 21.5203 11.8728 21.5391C11.6618 21.5663 11.5631 21.6724 11.5333 21.8804C11.5325 21.886 11.5315 21.8916 11.5312 21.8972C11.5239 22.0216 11.5166 22.146 11.5093 22.3034ZM11.2811 8.06498C11.2414 8.09707 11.1999 8.12712 11.1624 8.16155C10.7293 8.55927 10.5514 9.04962 10.6369 9.63185C10.6893 9.98924 10.8455 10.3003 11.0796 10.5728C11.3567 10.8955 11.4968 11.2673 11.4987 11.6937C11.5025 12.5325 11.5135 13.3713 11.5152 14.2102C11.5171 15.0831 11.5121 15.956 11.509 16.8289C11.5076 17.2314 11.5011 17.6338 11.5026 18.0362C11.503 18.1313 11.5173 18.2286 11.541 18.3209C11.5743 18.4504 11.6623 18.5403 11.7929 18.5732C11.8799 18.595 11.9713 18.6081 12.0609 18.6087C12.3896 18.6108 12.7184 18.6038 13.0471 18.6043C14.5435 18.6068 16.0399 18.6138 17.5363 18.6125C18.2276 18.6119 18.9189 18.5942 19.6102 18.5877C20.1488 18.5827 20.6866 18.5649 21.2223 18.506C21.4419 18.4819 21.6619 18.4595 21.8766 18.4043C22.6012 18.2178 23.1187 17.789 23.3904 17.0868C23.6 16.5451 23.6391 15.9809 23.5306 15.4139C23.4181 14.8264 23.1041 14.3591 22.6137 14.013C22.2243 13.738 21.7852 13.6007 21.317 13.5439C20.8665 13.4893 20.4139 13.4656 19.9606 13.4553C19.7453 13.4504 19.5294 13.4483 19.3146 13.4593C19.1601 13.4671 19.008 13.4561 18.8573 13.4333C18.61 13.3959 18.3928 13.2892 18.2151 13.1106C18.1433 13.0385 18.0808 12.957 18.0096 12.8842C17.9187 12.7912 17.8307 12.6931 17.7283 12.6142C17.3818 12.3472 16.9894 12.2511 16.5592 12.3371C15.8218 12.4846 15.08 13.1707 15.2155 14.2573C15.3357 15.2207 16.4001 15.9266 17.3857 15.5283C17.6258 15.4313 17.8348 15.2894 18.0265 15.1182C18.0983 15.0541 18.1736 14.9939 18.2487 14.9336C18.355 14.8483 18.4765 14.8126 18.6132 14.8215C18.7035 14.8273 18.7944 14.8248 18.8851 14.827C19.3156 14.8374 19.7464 14.8421 20.1766 14.8605C20.584 14.878 20.991 14.908 21.3979 14.9365C21.7748 14.963 22.0393 15.1483 22.1607 15.5112C22.2638 15.8197 22.2713 16.135 22.1812 16.4484C22.1145 16.6802 21.977 16.8633 21.7736 16.9954C21.644 17.0796 21.5027 17.1371 21.3544 17.1774C21.151 17.2328 20.9433 17.2586 20.7329 17.2618C20.3703 17.2673 20.0076 17.2757 19.645 17.2755C19.0102 17.2752 18.3755 17.2671 17.7407 17.2663C16.4256 17.2647 15.1104 17.2657 13.7952 17.266C13.7329 17.266 13.6705 17.2722 13.6083 17.2696C13.4898 17.2648 13.37 17.265 13.2533 17.2466C13.0396 17.2129 12.9124 17.0803 12.8678 16.8695C12.8585 16.8254 12.8542 16.7797 12.8528 16.7345C12.8495 16.6269 12.8477 16.5192 12.8481 16.4115C12.85 15.8504 12.8533 15.2892 12.8552 14.728C12.8587 13.6964 12.8618 12.6648 12.8639 11.6332C12.8642 11.4895 12.8915 11.3516 12.9407 11.2178C13.0182 11.0069 13.1369 10.8224 13.3003 10.6677C13.4837 10.4942 13.6297 10.2932 13.7337 10.0636C13.9043 9.68692 13.936 9.29897 13.8056 8.90432C13.7055 8.6013 13.5285 8.34606 13.2843 8.14179C12.8709 7.79605 12.3974 7.67828 11.8698 7.79238C11.6624 7.83723 11.4737 7.92766 11.2811 8.06498Z" fill="#0176D3"/>
<path d="M16.5312 31.4297C16.5323 31.0504 16.5332 30.6876 16.5348 30.3248C16.5348 30.3148 16.5426 30.3047 16.5499 30.2871C16.5978 30.2612 16.6554 30.2735 16.7103 30.2734C17.1695 30.2724 17.6288 30.2731 18.0881 30.2728C19.205 30.272 20.322 30.2758 21.4389 30.2677C21.9259 30.2642 22.4136 30.259 22.8993 30.2084C24.0833 30.0849 25.1935 29.7411 26.2108 29.1129C26.6427 28.8462 26.9931 28.4969 27.2786 28.0805C27.6353 27.5602 27.8722 26.9867 28.0264 26.3773C28.182 25.7624 28.2367 25.1369 28.1985 24.5052C28.1603 23.8725 28.0246 23.2605 27.7631 22.6799C27.3042 21.6608 26.5618 20.9347 25.5237 20.5148C24.9249 20.2726 24.3258 20.0312 23.727 19.789C23.6761 19.7684 23.6267 19.7443 23.5576 19.7133C23.6122 19.6794 23.6478 19.6537 23.6864 19.6338C24.0241 19.4604 24.3625 19.2883 24.7005 19.1153C25.193 18.8633 25.6472 18.5563 26.0443 18.1693C26.7269 17.504 27.1576 16.7042 27.321 15.7629C27.4318 15.1245 27.4102 14.4884 27.2991 13.8522C27.2035 13.3051 27.0262 12.7881 26.746 12.3084C26.2227 11.4125 25.4649 10.7919 24.5029 10.416C24.0731 10.2481 23.6274 10.1422 23.1677 10.0986C22.6539 10.0498 22.1381 10.0444 21.6226 10.03C20.0015 9.98472 18.38 10.0166 16.7588 10.0066C16.6912 10.0062 16.6236 10.0066 16.5568 10.0066C16.5459 9.98451 16.5325 9.97001 16.5325 9.95547C16.5313 9.53624 16.5316 9.11701 16.5316 8.68876C16.5651 8.6817 16.5962 8.67138 16.6278 8.66936C16.6787 8.66611 16.7298 8.66827 16.7809 8.66827C18.4818 8.66826 20.1828 8.66964 21.8837 8.66688C22.1623 8.66643 22.4389 8.685 22.7148 8.71631C23.2274 8.77447 23.7364 8.85561 24.2371 8.98186C25.359 9.26471 26.3292 9.81358 27.1227 10.6579C27.9563 11.5447 28.4699 12.595 28.6852 13.7928C28.7913 14.3831 28.813 14.9761 28.7404 15.5705C28.5936 16.7725 28.1324 17.8405 27.348 18.7648C27.1647 18.9807 26.9659 19.1834 26.7747 19.3925C26.7488 19.4209 26.7253 19.4516 26.6924 19.4912C26.7484 19.5321 26.797 19.5691 26.8469 19.6039C27.2907 19.9134 27.6957 20.266 28.0496 20.6764C28.7073 21.4388 29.1393 22.3143 29.3594 23.2949C29.5245 24.0305 29.5665 24.7744 29.5027 25.5255C29.4473 26.1773 29.3353 26.817 29.1211 27.4368C28.8389 28.2539 28.4005 28.9743 27.7833 29.5814C27.2767 30.0798 26.6899 30.4616 26.0426 30.7518C25.3661 31.0551 24.6578 31.2498 23.9272 31.3667C23.4793 31.4384 23.0291 31.4893 22.5758 31.5106C22.1286 31.5316 21.6812 31.549 21.2345 31.5768C20.719 31.6088 20.2032 31.5988 19.6875 31.5996C18.7066 31.6011 17.7257 31.6001 16.7448 31.6001C16.6831 31.6001 16.6213 31.6001 16.5695 31.6001C16.5151 31.5486 16.5373 31.4945 16.5312 31.4297Z" fill="white"/>
<path d="M11.5098 22.2869C11.5171 22.146 11.5244 22.0216 11.5317 21.8972C11.532 21.8916 11.533 21.886 11.5338 21.8804C11.5636 21.6724 11.6623 21.5663 11.8733 21.5391C12.019 21.5203 12.1669 21.5115 12.3139 21.5113C13.7596 21.5094 15.2053 21.5122 16.651 21.5089C17.0756 21.508 17.5001 21.492 17.9247 21.4834C17.9984 21.4819 18.0721 21.4829 18.1458 21.4828C18.6788 21.4828 19.2117 21.4801 19.7446 21.4836C20.2773 21.4871 20.8102 21.4907 21.3426 21.5057C21.8257 21.5193 22.3033 21.5806 22.7624 21.7417C23.2112 21.8991 23.5941 22.1516 23.8819 22.5372C24.0855 22.8102 24.216 23.1167 24.2813 23.4484C24.3906 24.0032 24.3712 24.5544 24.1929 25.0937C23.9586 25.8022 23.4832 26.2654 22.7624 26.4703C22.473 26.5526 22.1774 26.6037 21.879 26.6408C21.4118 26.6989 20.9421 26.7219 20.4722 26.742C20.0193 26.7614 19.5663 26.7797 19.1137 26.8043C18.9785 26.8117 18.8428 26.831 18.7102 26.8584C18.3551 26.9318 18.0569 27.1089 17.8111 27.3747C17.7841 27.4039 17.7582 27.434 17.7307 27.4626C17.5331 27.6687 17.2882 27.7781 17.0064 27.7942C16.4368 27.8268 15.9645 27.6127 15.5838 27.1973C15.3456 26.9373 15.2309 26.6197 15.2061 26.27C15.1896 26.0362 15.2094 25.8058 15.2832 25.5815C15.3972 25.2347 15.6045 24.9594 15.913 24.763C16.3292 24.498 16.7763 24.4023 17.2613 24.5252C17.5207 24.5909 17.7421 24.7224 17.9288 24.9132C17.9723 24.9577 18.0144 25.0037 18.0574 25.049C18.2967 25.3011 18.592 25.4242 18.9377 25.4271C19.1134 25.4285 19.2891 25.4233 19.4648 25.4231C19.9637 25.4225 20.4627 25.424 20.9616 25.4224C21.1882 25.4216 21.415 25.4191 21.6416 25.4109C21.8522 25.4034 22.0575 25.3635 22.2545 25.285C22.6471 25.1286 22.8906 24.8424 22.9929 24.4351C23.0389 24.252 23.0539 24.0648 23.022 23.8782C22.9493 23.4523 22.7082 23.1592 22.3085 22.9964C22.1447 22.9297 21.9717 22.8965 21.7988 22.867C21.5359 22.8221 21.2708 22.7999 21.0036 22.8C19.0646 22.8009 17.1257 22.8011 15.1868 22.8001C14.6256 22.7999 14.0644 22.7933 13.5032 22.794C13.3965 22.7942 13.288 22.8061 13.1834 22.8278C12.9964 22.8665 12.895 22.9918 12.8579 23.1769C12.8206 23.3627 12.8356 23.5497 12.8375 23.7364C12.8399 23.9686 12.8512 24.2008 12.8518 24.433C12.8538 25.1757 12.8508 25.9184 12.8532 26.6611C12.855 27.2279 12.8613 27.7948 12.8671 28.3616C12.8713 28.7659 13.0188 29.1132 13.2967 29.4042C13.515 29.6327 13.6893 29.8869 13.7921 30.188C14.0629 30.9805 13.6965 31.7175 13.1414 32.0845C12.5689 32.463 11.7823 32.4241 11.2296 31.9946C10.6954 31.5794 10.4953 30.9295 10.6951 30.2575C10.7804 29.9705 10.9262 29.717 11.1208 29.4903C11.3177 29.261 11.4382 28.9957 11.4836 28.6972C11.4938 28.6303 11.4977 28.5618 11.498 28.4941C11.5025 27.4283 11.5074 26.3625 11.5093 25.2968C11.5112 24.299 11.5097 23.3012 11.5098 22.2869ZM16.8986 25.4068C16.3543 25.3285 15.9438 25.826 16.0524 26.3147C16.1364 26.6926 16.4681 26.9412 16.8626 26.9124C17.2328 26.8854 17.5362 26.573 17.5539 26.1972C17.5747 25.7562 17.2443 25.4513 16.8986 25.4068ZM12.856 30.9639C12.9281 30.8164 12.9485 30.6619 12.9152 30.5013C12.8384 30.1306 12.4719 29.8563 12.0549 29.9551C11.6525 30.0504 11.424 30.4486 11.5356 30.8449C11.6347 31.1968 11.9935 31.4147 12.3526 31.3432C12.5718 31.2995 12.7339 31.1797 12.856 30.9639Z" fill="white"/>
<path d="M11.2902 8.05783C11.4729 7.92757 11.6616 7.83714 11.869 7.79229C12.3966 7.67819 12.8701 7.79596 13.2835 8.1417C13.5277 8.34597 13.7047 8.60122 13.8048 8.90423C13.9352 9.29889 13.9035 9.68683 13.7329 10.0635C13.6289 10.2931 13.483 10.4941 13.2995 10.6677C13.1361 10.8223 13.0174 11.0068 12.9399 11.2177C12.8907 11.3516 12.8634 11.4894 12.8631 11.6331C12.861 12.6647 12.8579 13.6964 12.8544 14.728C12.8526 15.2891 12.8492 15.8503 12.8473 16.4114C12.8469 16.5191 12.8487 16.6268 12.852 16.7344C12.8534 16.7796 12.8577 16.8253 12.867 16.8695C12.9116 17.0802 13.0388 17.2128 13.2525 17.2465C13.3692 17.2649 13.489 17.2647 13.6075 17.2696C13.6697 17.2721 13.7321 17.2659 13.7944 17.2659C15.1096 17.2657 16.4248 17.2646 17.7399 17.2662C18.3747 17.267 19.0095 17.2751 19.6442 17.2754C20.0068 17.2756 20.3695 17.2672 20.7321 17.2617C20.9425 17.2585 21.1502 17.2327 21.3536 17.1773C21.502 17.137 21.6432 17.0795 21.7728 16.9953C21.9762 16.8632 22.1137 16.6802 22.1804 16.4483C22.2705 16.1349 22.263 15.8196 22.1599 15.5111C22.0385 15.1482 21.774 14.9629 21.3971 14.9364C20.9902 14.9079 20.5832 14.878 20.1758 14.8605C19.7456 14.842 19.3148 14.8373 18.8843 14.8269C18.7936 14.8247 18.7027 14.8273 18.6124 14.8214C18.4757 14.8125 18.3543 14.8482 18.2479 14.9336C18.1728 14.9938 18.0975 15.054 18.0257 15.1181C17.834 15.2893 17.625 15.4312 17.385 15.5282C16.3993 15.9265 15.3349 15.2206 15.2147 14.2572C15.0792 13.1706 15.821 12.4845 16.5584 12.337C16.9886 12.251 17.381 12.3471 17.7275 12.6141C17.8299 12.693 17.9179 12.7911 18.0088 12.8841C18.08 12.9569 18.1425 13.0384 18.2143 13.1106C18.392 13.2891 18.6092 13.3958 18.8565 13.4332C19.0072 13.456 19.1593 13.467 19.3138 13.4592C19.5286 13.4482 19.7445 13.4503 19.9598 13.4552C20.4131 13.4655 20.8658 13.4892 21.3162 13.5438C21.7844 13.6006 22.2235 13.7379 22.613 14.0129C23.1033 14.3591 23.4173 14.8264 23.5298 15.4138C23.6384 15.9809 23.5992 16.545 23.3896 17.0867C23.1179 17.7889 22.6004 18.2178 21.8758 18.4042C21.6611 18.4594 21.4411 18.4818 21.2216 18.5059C20.6859 18.5648 20.1481 18.5826 19.6094 18.5877C18.9181 18.5941 18.2268 18.6118 17.5355 18.6124C16.0391 18.6137 14.5427 18.6067 13.0463 18.6042C12.7176 18.6037 12.3888 18.6107 12.0601 18.6086C11.9705 18.608 11.8791 18.5949 11.7922 18.5731C11.6615 18.5402 11.5735 18.4503 11.5403 18.3208C11.5166 18.2286 11.5022 18.1312 11.5018 18.0361C11.5003 17.6337 11.5068 17.2313 11.5082 16.8289C11.5113 15.9559 11.5163 15.083 11.5144 14.2101C11.5127 13.3712 11.5017 12.5324 11.4979 11.6936C11.496 11.2672 11.3559 10.8954 11.0788 10.5728C10.8447 10.3002 10.6885 9.98915 10.6361 9.63177C10.5506 9.04954 10.7285 8.55918 11.1616 8.16147C11.1991 8.12703 11.2406 8.09698 11.2902 8.05783ZM16.7584 13.2971C16.7082 13.3041 16.6566 13.3059 16.6081 13.3191C16.3289 13.3953 16.0917 13.6443 16.1048 14.0016C16.1218 14.4632 16.5035 14.6782 16.8133 14.6708C17.3038 14.659 17.6533 14.1254 17.3988 13.6547C17.2698 13.4161 17.0613 13.2978 16.7584 13.2971ZM12.7618 9.03719C12.7341 8.99473 12.7101 8.94915 12.6779 8.91034C12.4814 8.67292 12.182 8.61105 11.9102 8.70428C11.6241 8.80242 11.4546 9.08276 11.4596 9.35696C11.4667 9.74208 11.7683 10.0401 12.1556 10.0384C12.5408 10.0368 12.8426 9.71098 12.833 9.3572C12.8302 9.25404 12.8181 9.15473 12.7618 9.03719Z" fill="white"/>
<path d="M16.9124 25.4086C17.2446 25.4513 17.575 25.7561 17.5541 26.1971C17.5364 26.5729 17.2331 26.8854 16.8629 26.9124C16.4684 26.9412 16.1366 26.6925 16.0526 26.3146C15.9441 25.8259 16.3545 25.3285 16.9124 25.4086Z" fill="#0176D3"/>
<path d="M12.8505 30.9753C12.7344 31.1797 12.5723 31.2995 12.3531 31.3431C11.994 31.4146 11.6352 31.1967 11.5361 30.8448C11.4244 30.4485 11.653 30.0504 12.0554 29.955C12.4724 29.8562 12.8388 30.1305 12.9157 30.5013C12.949 30.6619 12.9285 30.8163 12.8505 30.9753Z" fill="#0176D3"/>
<path d="M16.7746 13.297C17.0624 13.2979 17.271 13.4162 17.3999 13.6547C17.6544 14.1255 17.305 14.6591 16.8145 14.6709C16.5047 14.6783 16.123 14.4632 16.106 14.0016C16.0928 13.6444 16.3301 13.3953 16.6093 13.3192C16.6578 13.3059 16.7094 13.3042 16.7746 13.297Z" fill="#0176D3"/>
<path d="M12.7693 9.04903C12.8195 9.15478 12.8316 9.2541 12.8344 9.35726C12.844 9.71104 12.5423 10.0368 12.157 10.0385C11.7697 10.0401 11.4681 9.74214 11.461 9.35702C11.456 9.08281 11.6255 8.80248 11.9116 8.70434C12.1834 8.6111 12.4828 8.67297 12.6794 8.91039C12.7115 8.94921 12.7355 8.99479 12.7693 9.04903Z" fill="#0176D3"/>
</g>
<path d="M45.9997 34.375C45.9997 34.375 72 27.6844 130.915 34.5923" stroke="#0176D3" stroke-width="2.5" stroke-linecap="round"/>
<path d="M50.068 27V11.6H57.284C59.132 11.6 60.54 11.9667 61.508 12.7C62.476 13.4187 62.96 14.3867 62.96 15.604C62.96 16.4253 62.7693 17.1293 62.388 17.716C62.0067 18.288 61.4933 18.7353 60.848 19.058C60.2173 19.366 59.528 19.52 58.78 19.52L59.176 18.728C60.0413 18.728 60.8187 18.8893 61.508 19.212C62.1973 19.52 62.74 19.9747 63.136 20.576C63.5467 21.1773 63.752 21.9253 63.752 22.82C63.752 24.14 63.246 25.1667 62.234 25.9C61.222 26.6333 59.7187 27 57.724 27H50.068ZM52.928 24.756H57.548C58.6187 24.756 59.44 24.58 60.012 24.228C60.584 23.876 60.87 23.3113 60.87 22.534C60.87 21.7713 60.584 21.214 60.012 20.862C59.44 20.4953 58.6187 20.312 57.548 20.312H52.708V18.09H56.976C57.9733 18.09 58.736 17.914 59.264 17.562C59.8067 17.21 60.078 16.682 60.078 15.978C60.078 15.2593 59.8067 14.724 59.264 14.372C58.736 14.02 57.9733 13.844 56.976 13.844H52.928V24.756ZM70.5961 27V20.906L71.2341 22.666L64.5461 11.6H67.6041L72.9721 20.51H71.2561L76.6681 11.6H79.4841L72.7961 22.666L73.4561 20.906V27H70.5961ZM84.5747 27V14.02H79.4707V11.6H92.5387V14.02H87.4347V27H84.5747ZM97.655 18.002H105.311V20.356H97.655V18.002ZM97.875 24.602H106.565V27H95.015V11.6H106.257V13.998H97.875V24.602ZM117.299 27.22C116.097 27.22 114.989 27.022 113.977 26.626C112.965 26.23 112.085 25.68 111.337 24.976C110.589 24.2573 110.01 23.4213 109.599 22.468C109.189 21.5 108.983 20.444 108.983 19.3C108.983 18.156 109.189 17.1073 109.599 16.154C110.01 15.186 110.589 14.35 111.337 13.646C112.085 12.9273 112.965 12.37 113.977 11.974C114.989 11.578 116.089 11.38 117.277 11.38C118.48 11.38 119.58 11.578 120.577 11.974C121.589 12.37 122.469 12.92 123.217 13.624C123.965 14.328 124.545 15.164 124.955 16.132C125.366 17.1 125.571 18.156 125.571 19.3C125.571 20.444 125.366 21.5 124.955 22.468C124.545 23.436 123.965 24.272 123.217 24.976C122.469 25.68 121.589 26.23 120.577 26.626C119.58 27.022 118.487 27.22 117.299 27.22ZM122.315 30.366C121.773 30.366 121.245 30.3 120.731 30.168C120.233 30.0507 119.734 29.8453 119.235 29.552C118.751 29.2733 118.245 28.8993 117.717 28.43C117.189 27.9753 116.61 27.4107 115.979 26.736L119.015 25.944C119.426 26.4867 119.815 26.9193 120.181 27.242C120.563 27.5793 120.929 27.8213 121.281 27.968C121.633 28.1147 122 28.188 122.381 28.188C123.393 28.188 124.273 27.7773 125.021 26.956L126.341 28.54C125.315 29.7573 123.973 30.366 122.315 30.366ZM117.277 24.712C118.055 24.712 118.773 24.58 119.433 24.316C120.093 24.052 120.665 23.678 121.149 23.194C121.633 22.6953 122.007 22.116 122.271 21.456C122.55 20.796 122.689 20.0773 122.689 19.3C122.689 18.508 122.55 17.7893 122.271 17.144C122.007 16.484 121.633 15.912 121.149 15.428C120.665 14.9293 120.093 14.548 119.433 14.284C118.773 14.02 118.055 13.888 117.277 13.888C116.5 13.888 115.781 14.02 115.121 14.284C114.461 14.548 113.889 14.9293 113.405 15.428C112.921 15.912 112.54 16.484 112.261 17.144C111.997 17.7893 111.865 18.508 111.865 19.3C111.865 20.0773 111.997 20.796 112.261 21.456C112.54 22.116 112.921 22.6953 113.405 23.194C113.889 23.678 114.461 24.052 115.121 24.316C115.781 24.58 116.5 24.712 117.277 24.712Z" fill="#2B3C4E"/>
</g>
<defs>
<clipPath id="clip0_402_115">
<rect width="40" height="40" fill="white"/>
</clipPath>
</defs>
</svg>
